<svg viewBox="0 0 549 307" focusable="false" class="chakra-icon css-5yrek3"><g><path fill="currentColor" fill-rule="evenodd" d="M497.268 183.14c-.536-.427-1.159-.551-1.661-.551-.995 0-2.025.468-2.785 1.231l-.133.129-.094.154c-10.389 16.324-19.101 27.217-26.718 34.014-7.605 6.787-13.987 9.379-19.765 9.379-3.264 0-5.136-.943-6.248-2.305-1.168-1.43-1.765-3.64-1.765-6.702 0-4.797 1.412-10.473 3.646-16.409 2.146-5.703 5.011-11.545 7.972-16.921 11.151-3.305 24.207-9.263 32.725-16.78l.013-.01.012-.011c3.043-2.792 5.635-5.695 7.476-8.62 1.837-2.919 2.987-5.956 2.987-8.98 0-2.28-.644-4.663-2.386-6.483-1.756-1.838-4.412-2.871-7.961-2.871-7.029 0-15.972 3.346-24.577 9.021-8.645 5.699-17.136 13.868-23.231 23.772a68.002 68.002 0 0 0-5.341 10.545c-10.015 14.962-18.573 25.69-26.28 32.671-7.731 7.002-14.44 10.082-20.766 10.082-2.95 0-4.786-.962-5.93-2.387-1.195-1.487-1.836-3.726-1.836-6.619 0-5.625 1.886-12.392 5.015-19.722 3.118-7.305 7.412-15.041 12.101-22.568 5.309-8.519 10.581-15.865 15.351-21.06 2.386-2.6 4.607-4.616 6.605-5.971 2.023-1.372 3.66-1.958 4.916-1.958 1.328 0 2.509.767 3.758 2.544 1.261 1.794 2.335 4.257 3.525 7.009l1.72 3.969 7.779-14.144-1.13-.869c-3.558-2.737-8.395-4.315-13.915-4.315-18.89 0-37.458 14.146-47.806 30.806l-.002.002c-2.467 3.986-4.628 7.996-6.361 12.134l-8.023 12.4-.003.003c-5.852 9.091-10.924 16.903-15.932 22.457-5.019 5.567-9.687 8.537-14.675 8.537-2.08 0-3.496-.546-4.375-1.339-.856-.772-1.405-1.961-1.405-3.697 0-2.311.462-4.496 3.731-10.424 3.287-5.957 9.268-15.456 20.072-32.346l.003-.005 20.206-31.823-.895-4.471h-29.703l-.444.332c-.658.493-1.157 1.055-1.481 1.703a4.089 4.089 0 0 0-.424 1.86v1.662h10.505l-11.988 19.039c-3.486 5.562-6.583 10.665-9.155 15.591l-.01.007-6.856 10.158c-6.968 10.327-12.91 19.017-18.574 25.138-5.688 6.146-10.79 9.36-16.023 9.36-1.83 0-3.054-.483-3.806-1.175-.733-.672-1.231-1.737-1.231-3.366 0-1.915.754-4.334 2.971-8.16 2.208-3.811 5.751-8.827 11.084-15.896l7.69-10.171.001-.001c10.039-13.302 12.988-21.093 12.988-31.022 0-4.818-.687-9.084-2.526-12.196-1.922-3.253-5.02-5.097-9.308-5.097-5.702 0-11.91 2.909-18.41 7.9-6.533 5.017-13.558 12.29-20.927 21.371l-.175.216h-2.243v-12.938c0-4.737-.884-8.412-3.13-10.886-2.283-2.515-5.638-3.429-9.697-3.429h-9.111l-.487.486a6.468 6.468 0 0 0-1.678 3.005l-.516 2.066h10.8c3.113 0 4.644.556 5.417 1.232.705.617 1.108 1.631 1.108 3.556 0 1.862-.681 4.198-2.131 7.22-1.441 3.002-3.564 6.526-6.286 10.733l-.005.007-37.594 59.373h21.29l21.587-33.27 1.232-1.971c10.384-15.326 20.105-27.557 28.731-35.937 4.315-4.193 8.318-7.385 11.956-9.52 3.65-2.142 6.828-3.16 9.525-3.16 1.636 0 2.362.384 2.701.723.336.336.599.936.599 2.081 0 1.682-.704 3.924-2.457 7.067-1.738 3.117-4.408 6.948-8.115 11.767l-.001.002-8.187 10.668-.003.003c-10.504 13.756-15.475 24.783-15.475 35.743 0 3.976.633 8.46 2.632 12.011 2.065 3.668 5.569 6.274 10.939 6.274 7.505 0 14.389-4.984 20.784-11.897 4.565-4.934 9.051-11.041 13.504-17.497a54.764 54.764 0 0 0-.795 9.372c0 3.797.434 8.511 2.31 12.332.95 1.935 2.295 3.69 4.183 4.958 1.898 1.275 4.244 1.988 7.078 1.988 7.053 0 13.235-4.482 18.86-10.698 5.305-5.863 10.391-13.586 15.483-21.449a55.121 55.121 0 0 0-.266 5.426c0 7.057 1.664 13.736 5.031 18.703 3.404 5.022 8.544 8.266 15.239 8.266 7.376 0 14.643-3.235 22.4-9.78 6.525-5.504 13.485-13.424 21.256-23.948a55.253 55.253 0 0 0-.45 7.008c0 6.95 1.734 13.566 5.132 18.496 3.428 4.974 8.561 8.224 15.138 8.224 7.484 0 15.178-3.29 23.676-10.806 8.484-7.502 17.886-19.314 28.838-36.61l.257-.407v-.482c0-.708-.287-1.389-.871-1.856Zm-26.979-27.88c2.746-2.85 5.325-5.01 7.681-6.448 2.369-1.444 4.407-2.098 6.102-2.098 1.421 0 2.159.398 2.567.834.424.458.733 1.232.733 2.466 0 1.791-.759 3.957-2.313 6.393-1.446 2.264-3.514 4.652-6.055 7.033-.167.158-.339.316-.51.474l-.009.006.004-.004c-6.398 5.78-15.903 10.915-24.971 14.423 5.783-9.756 11.514-17.616 16.771-23.079Z" clip-rule="evenodd"></path><path fill="currentColor" fill-rule="evenodd" d="M219.919 185.478v-.482c0-.708-.288-1.389-.872-1.856-.533-.427-1.156-.551-1.658-.551-.997 0-2.025.468-2.788 1.231l-.129.129-.098.154c-10.388 16.324-19.099 27.217-26.717 34.014-7.604 6.787-13.987 9.379-19.764 9.379-3.265 0-5.137-.943-6.249-2.305-1.168-1.43-1.765-3.64-1.765-6.702 0-4.797 1.412-10.473 3.646-16.409 2.146-5.703 5.011-11.545 7.972-16.921 11.151-3.305 24.206-9.263 32.726-16.78l.011-.01.012-.011c3.045-2.792 5.638-5.695 7.479-8.62 1.836-2.919 2.984-5.956 2.984-8.98 0-2.28-.642-4.663-2.383-6.483-1.759-1.838-4.414-2.871-7.962-2.871-7.029 0-15.972 3.346-24.578 9.021-8.645 5.7-17.137 13.87-23.233 23.775-6.603 10.668-9.674 21.884-9.674 32.381 0 6.95 1.733 13.566 5.131 18.496 3.428 4.974 8.562 8.224 15.138 8.224 7.484 0 15.179-3.29 23.679-10.806 8.483-7.502 17.884-19.314 28.835-36.61l.257-.407ZM192.07 155.26c2.745-2.85 5.325-5.01 7.682-6.448 2.367-1.444 4.406-2.098 6.1-2.098 1.42 0 2.16.398 2.566.834.425.458.734 1.232.734 2.466 0 1.791-.757 3.957-2.313 6.393-1.543 2.415-3.791 4.972-6.57 7.51-6.401 5.78-15.901 10.914-24.971 14.422 5.784-9.756 11.513-17.616 16.772-23.079ZM165.572 131.717c2.393-3.453 4.77-6.885 7.142-10.276 15.641-22.37 30.467-43.562 46.547-59.182 16.055-15.596 33.176-25.453 53.38-25.453 7.016 0 14.275 1.211 20.545 3.382l1.546.535 2.156-5.927-1.694-.502C288.352 32.267 280.502 31 272.641 31c-21.723 0-40.08 10.525-56.738 26.547H99.27l-3.484 5.805h48.038c-12.562 6-21.808 16.07-28.733 26.938-8.398 13.178-13.475 27.675-16.947 37.845-3.735 10.684-6.804 20.53-9.624 29.576l-.002.009c-6.03 19.342-10.89 34.9-18.67 47.553-7.721 12.558-18.35 22.29-36.033 29.798l-1.815.77 4.16 6.471 1.375-.802c5.836-3.404 11.357-5.772 17.955-7.734 26.924-8.008 48.42-24.96 67.069-45.435 15.8-17.347 29.639-37.322 43.013-56.624Zm-96.063 87.232c9.76-8.666 17.662-18.346 24.745-30.404 7.841-13.349 14.678-29.612 21.918-50.642v.002-.003c1.918-5.537 3.693-11.065 5.422-16.452l.003-.009c5.111-15.919 9.803-30.49 16.69-41.113 6.808-10.499 15.649-16.976 29.159-16.976h42.722c-14.579 15.381-28.207 34.821-42.252 54.859l-.056.079c-27.565 39.325-56.777 80.918-98.351 100.659Z" clip-rule="evenodd"></path></g></svg>
